{
  "asset": {
    "version": "2.0",
    "generator": "THREE.GLTFExporter"
  },
  "scenes": [
    {
      "name": "Scene",
      "nodes": [
        9
      ]
    }
  ],
  "scene": 0,
  "nodes": [
    {
      "rotation": [
        0.7071068286895752,
        0,
        0,
        0.7071068286895752
      ],
      "translation": [
        0,
        1.2400000095367432,
        6.619389533996582
      ],
      "name": "Camera",
      "extras": {
        "name": "Camera"
      }
    },
    {
      "name": "Plane002",
      "mesh": 0
    },
    {
      "name": "Plane002_1",
      "mesh": 1
    },
    {
      "name": "Plane001",
      "mesh": 2
    },
    {
      "name": "Plane001_1",
      "mesh": 3
    },
    {
      "rotation": [
        1.623497116933074e-8,
        -3.4044349576710666e-8,
        0.2443719654594988,
        0.9696815775644414
      ],
      "translation": [
        0.8097034692764282,
        0.8028553128242493,
        -0.04273784160614014
      ],
      "name": "doorknob",
      "extras": {
        "name": "doorknob"
      },
      "mesh": 4
    },
    {
      "translation": [
        0.8517751097679138,
        0.7818396687507629,
        -0.0166003555059433
      ],
      "name": "doorlock",
      "extras": {
        "name": "doorlock"
      },
      "mesh": 5
    },
    {
      "translation": [
        -0.43513479828834534,
        0.24896162748336792,
        0.10139739513397217
      ],
      "name": "door",
      "extras": {
        "name": "door"
      },
      "children": [
        3,
        4,
        5,
        6
      ]
    },
    {
      "name": "doorframe",
      "extras": {
        "name": "doorframe"
      },
      "children": [
        1,
        2,
        7
      ]
    },
    {
      "name": "doorred.gltf",
      "children": [
        0,
        8
      ]
    }
  ],
  "bufferViews": [
    {
      "buffer": 0,
      "byteOffset": 0,
      "byteLength": 2232,
      "target": 34962,
      "byteStride": 12
    },
    {
      "buffer": 0,
      "byteOffset": 2232,
      "byteLength": 2232,
      "target": 34962,
      "byteStride": 12
    },
    {
      "buffer": 0,
      "byteOffset": 4464,
      "byteLength": 1488,
      "target": 34962,
      "byteStride": 8
    },
    {
      "buffer": 0,
      "byteOffset": 5952,
      "byteLength": 792,
      "target": 34963
    },
    {
      "buffer": 0,
      "byteOffset": 6744,
      "byteLength": 3024,
      "target": 34962,
      "byteStride": 12
    },
    {
      "buffer": 0,
      "byteOffset": 9768,
      "byteLength": 3024,
      "target": 34962,
      "byteStride": 12
    },
    {
      "buffer": 0,
      "byteOffset": 12792,
      "byteLength": 2016,
      "target": 34962,
      "byteStride": 8
    },
    {
      "buffer": 0,
      "byteOffset": 14808,
      "byteLength": 1560,
      "target": 34963
    },
    {
      "buffer": 0,
      "byteOffset": 16368,
      "byteLength": 2544,
      "target": 34962,
      "byteStride": 12
    },
    {
      "buffer": 0,
      "byteOffset": 18912,
      "byteLength": 2544,
      "target": 34962,
      "byteStride": 12
    },
    {
      "buffer": 0,
      "byteOffset": 21456,
      "byteLength": 1696,
      "target": 34962,
      "byteStride": 8
    },
    {
      "buffer": 0,
      "byteOffset": 23152,
      "byteLength": 1032,
      "target": 34963
    },
    {
      "buffer": 0,
      "byteOffset": 24184,
      "byteLength": 8112,
      "target": 34962,
      "byteStride": 12
    },
    {
      "buffer": 0,
      "byteOffset": 32296,
      "byteLength": 8112,
      "target": 34962,
      "byteStride": 12
    },
    {
      "buffer": 0,
      "byteOffset": 40408,
      "byteLength": 5408,
      "target": 34962,
      "byteStride": 8
    },
    {
      "buffer": 0,
      "byteOffset": 45816,
      "byteLength": 3768,
      "target": 34963
    },
    {
      "buffer": 0,
      "byteOffset": 49584,
      "byteLength": 2304,
      "target": 34962,
      "byteStride": 12
    },
    {
      "buffer": 0,
      "byteOffset": 51888,
      "byteLength": 2304,
      "target": 34962,
      "byteStride": 12
    },
    {
      "buffer": 0,
      "byteOffset": 54192,
      "byteLength": 1536,
      "target": 34962,
      "byteStride": 8
    },
    {
      "buffer": 0,
      "byteOffset": 55728,
      "byteLength": 1032,
      "target": 34963
    },
    {
      "buffer": 0,
      "byteOffset": 56760,
      "byteLength": 528,
      "target": 34962,
      "byteStride": 12
    },
    {
      "buffer": 0,
      "byteOffset": 57288,
      "byteLength": 528,
      "target": 34962,
      "byteStride": 12
    },
    {
      "buffer": 0,
      "byteOffset": 57816,
      "byteLength": 352,
      "target": 34962,
      "byteStride": 8
    },
    {
      "buffer": 0,
      "byteOffset": 58168,
      "byteLength": 132,
      "target": 34963
    },
    {
      "buffer": 0,
      "byteOffset": 58300,
      "byteLength": 600
    },
    {
      "buffer": 0,
      "byteOffset": 58900,
      "byteLength": 1800
    },
    {
      "buffer": 0,
      "byteOffset": 60700,
      "byteLength": 624
    },
    {
      "buffer": 0,
      "byteOffset": 61324,
      "byteLength": 2496
    }
  ],
  "buffers": [
    {
      "byteLength": 63820,
      "uri": "data:application/octet-stream;base64,"
    }
  ],
  "accessors": [
    {
      "bufferView": 0,
      "componentType": 5126,
      "count": 186,
      "max": [
        0.48499998450279236,
        2.059999942779541,
        0.09134131669998169
      ],
      "min": [
        -0.48500004410743713,
        0,
        -0.09004352986812592
      ],
      "type": "VEC3"
    },
    {
      "bufferView": 1,
      "componentType": 5126,
      "count": 186,
      "max": [
        1,
        1,
        1
      ],
      "min": [
        -1,
        -1,
        -1
      ],
      "type": "VEC3"
    },
    {
      "bufferView": 2,
      "componentType": 5126,
      "count": 186,
      "max": [
        0.9563151001930237,
        0.9791967272758484
      ],
      "min": [
        0.009229383431375027,
        0.004420816898345947
      ],
      "type": "VEC2"
    },
    {
      "bufferView": 3,
      "componentType": 5123,
      "count": 396,
      "max": [
        185
      ],
      "min": [
        0
      ],
      "type": "SCALAR"
    },
    {
      "bufferView": 4,
      "componentType": 5126,
      "count": 252,
      "max": [
        -0.42713478207588196,
        1.7569472789764404,
        0.1094009205698967
      ],
      "min": [
        -0.44313478469848633,
        0.24896158277988434,
        0.08982137590646744
      ],
      "type": "VEC3"
    },
    {
      "bufferView": 5,
      "componentType": 5126,
      "count": 252,
      "max": [
        0.9778435826301575,
        0.9728995561599731,
        0.9331644773483276
      ],
      "min": [
        -0.9778435826301575,
        -0.9728995561599731,
        -0.9331644773483276
      ],
      "type": "VEC3"
    },
    {
      "bufferView": 6,
      "componentType": 5126,
      "count": 252,
      "max": [
        0.749366283416748,
        0.2891939878463745
      ],
      "min": [
        0.6728285551071167,
        0.18819856643676758
      ],
      "type": "VEC2"
    },
    {
      "bufferView": 7,
      "componentType": 5123,
      "count": 780,
      "max": [
        251
      ],
      "min": [
        0
      ],
      "type": "SCALAR"
    },
    {
      "bufferView": 8,
      "componentType": 5126,
      "count": 212,
      "max": [
        0.8601347804069519,
        1.7510383129119873,
        0.004142612684518099
      ],
      "min": [
        0.010134723037481308,
        -0.24896162748336792,
        -0.03585737198591232
      ],
      "type": "VEC3"
    },
    {
      "bufferView": 9,
      "componentType": 5126,
      "count": 212,
      "max": [
        1,
        1,
        1
      ],
      "min": [
        -1,
        -1,
        -1
      ],
      "type": "VEC3"
    },
    {
      "bufferView": 10,
      "componentType": 5126,
      "count": 212,
      "max": [
        0.6148595809936523,
        0.9999081492424011
      ],
      "min": [
        0.00009185045200865716,
        0.04236668348312378
      ],
      "type": "VEC2"
    },
    {
      "bufferView": 11,
      "componentType": 5123,
      "count": 516,
      "max": [
        211
      ],
      "min": [
        0
      ],
      "type": "SCALAR"
    },
    {
      "bufferView": 12,
      "componentType": 5126,
      "count": 676,
      "max": [
        0.838378369808197,
        1.5505326986312866,
        0.014697279781103134
      ],
      "min": [
        -0.007999999448657036,
        0.042547062039375305,
        -0.04641195759177208
      ],
      "type": "VEC3"
    },
    {
      "bufferView": 13,
      "componentType": 5126,
      "count": 676,
      "max": [
        1,
        1,
        1
      ],
      "min": [
        -1,
        -1,
        -1
      ],
      "type": "VEC3"
    },
    {
      "bufferView": 14,
      "componentType": 5126,
      "count": 676,
      "max": [
        0.968305766582489,
        0.3542923927307129
      ],
      "min": [
        0.509942889213562,
        0.14360660314559937
      ],
      "type": "VEC2"
    },
    {
      "bufferView": 15,
      "componentType": 5123,
      "count": 1884,
      "max": [
        675
      ],
      "min": [
        0
      ],
      "type": "SCALAR"
    },
    {
      "bufferView": 16,
      "componentType": 5126,
      "count": 192,
      "max": [
        0.011766052804887295,
        0.013912562280893326,
        0.11288841813802719
      ],
      "min": [
        -0.1196504533290863,
        -0.013912607915699482,
        -0.05912747234106064
      ],
      "type": "VEC3"
    },
    {
      "bufferView": 17,
      "componentType": 5126,
      "count": 192,
      "max": [
        1,
        1,
        1
      ],
      "min": [
        -1,
        -1,
        -1
      ],
      "type": "VEC3"
    },
    {
      "bufferView": 18,
      "componentType": 5126,
      "count": 192,
      "max": [
        0.8881356716156006,
        0.1310570240020752
      ],
      "min": [
        0.6258003115653992,
        0.01819777488708496
      ],
      "type": "VEC2"
    },
    {
      "bufferView": 19,
      "componentType": 5123,
      "count": 516,
      "max": [
        191
      ],
      "min": [
        0
      ],
      "type": "SCALAR"
    },
    {
      "bufferView": 20,
      "componentType": 5126,
      "count": 44,
      "max": [
        0.007430315017700195,
        0.01208031177520752,
        0.004236917942762375
      ],
      "min": [
        0,
        -0.011883854866027832,
        -0.00635523721575737
      ],
      "type": "VEC3"
    },
    {
      "bufferView": 21,
      "componentType": 5126,
      "count": 44,
      "max": [
        0.8503790497779846,
        1,
        1
      ],
      "min": [
        -5.77815569613449e-7,
        -0.9999999403953552,
        -1
      ],
      "type": "VEC3"
    },
    {
      "bufferView": 22,
      "componentType": 5126,
      "count": 44,
      "max": [
        0.6037189960479736,
        0.22941803932189941
      ],
      "min": [
        0.5790008306503296,
        0.18058180809020996
      ],
      "type": "VEC2"
    },
    {
      "bufferView": 23,
      "componentType": 5123,
      "count": 66,
      "max": [
        43
      ],
      "min": [
        0
      ],
      "type": "SCALAR"
    },
    {
      "bufferView": 24,
      "componentType": 5126,
      "count": 150,
      "max": [
        6.208333492279053
      ],
      "min": [
        0
      ],
      "type": "SCALAR"
    },
    {
      "bufferView": 25,
      "componentType": 5126,
      "count": 150,
      "max": [
        0.8517751097679138,
        0.7818396687507629,
        -0.0166003555059433
      ],
      "min": [
        0.849767804145813,
        0.7818396687507629,
        -0.0166003555059433
      ],
      "type": "VEC3"
    },
    {
      "bufferView": 26,
      "componentType": 5126,
      "count": 156,
      "max": [
        6.458333492279053
      ],
      "min": [
        0
      ],
      "type": "SCALAR"
    },
    {
      "bufferView": 27,
      "componentType": 5126,
      "count": 156,
      "max": [
        2.7824993864555836e-8,
        0,
        0.3826834559440613,
        1
      ],
      "min": [
        -2.5594301789055862e-8,
        -6.194704127437944e-8,
        0,
        0.9238795638084412
      ],
      "type": "VEC4"
    }
  ],
  "materials": [
    {
      "pbrMetallicRoughness": {
        "baseColorFactor": [
          0.800000011920929,
          0.800000011920929,
          0.800000011920929,
          1
        ],
        "metallicFactor": 0,
        "roughnessFactor": 0.5
      },
      "emissiveFactor": [
        0.3607843137254902,
        0,
        0
      ],
      "doubleSided": true,
      "name": "Door"
    },
    {
      "pbrMetallicRoughness": {
        "baseColorFactor": [
          0.800000011920929,
          0.800000011920929,
          0.800000011920929,
          1
        ],
        "metallicFactor": 0,
        "roughnessFactor": 0.5
      },
      "doubleSided": true,
      "name": "Glossy"
    }
  ],
  "meshes": [
    {
      "primitives": [
        {
          "mode": 4,
          "attributes": {
            "POSITION": 0,
            "NORMAL": 1,
            "TEXCOORD_0": 2
          },
          "indices": 3,
          "material": 0
        }
      ]
    },
    {
      "primitives": [
        {
          "mode": 4,
          "attributes": {
            "POSITION": 4,
            "NORMAL": 5,
            "TEXCOORD_0": 6
          },
          "indices": 7,
          "material": 1
        }
      ]
    },
    {
      "primitives": [
        {
          "mode": 4,
          "attributes": {
            "POSITION": 8,
            "NORMAL": 9,
            "TEXCOORD_0": 10
          },
          "indices": 11,
          "material": 0
        }
      ]
    },
    {
      "primitives": [
        {
          "mode": 4,
          "attributes": {
            "POSITION": 12,
            "NORMAL": 13,
            "TEXCOORD_0": 14
          },
          "indices": 15,
          "material": 0
        }
      ]
    },
    {
      "primitives": [
        {
          "mode": 4,
          "attributes": {
            "POSITION": 16,
            "NORMAL": 17,
            "TEXCOORD_0": 18
          },
          "indices": 19,
          "material": 1
        }
      ]
    },
    {
      "primitives": [
        {
          "mode": 4,
          "attributes": {
            "POSITION": 20,
            "NORMAL": 21,
            "TEXCOORD_0": 22
          },
          "indices": 23,
          "material": 0
        }
      ]
    }
  ],
  "animations": [
    {
      "name": "End pin",
      "samplers": [
        {
          "input": 24,
          "output": 25,
          "interpolation": "LINEAR"
        }
      ],
      "channels": [
        {
          "sampler": 0,
          "target": {
            "node": 6,
            "path": "translation"
          }
        }
      ]
    },
    {
      "name": "Grip",
      "samplers": [
        {
          "input": 26,
          "output": 27,
          "interpolation": "LINEAR"
        }
      ],
      "channels": [
        {
          "sampler": 0,
          "target": {
            "node": 5,
            "path": "rotation"
          }
        }
      ]
    }
  ]
}